<svg width="88" height="18" viewBox="0 0 88 18" fill="none" xmlns="http://www.w3.org/2000/svg">
<rect width="16" height="16" fill="#FB2C36"/>
<path d="M20.608 14.208C20.0107 14.208 19.4507 14.096 18.928 13.872C18.416 13.648 17.9627 13.3387 17.568 12.944C17.1733 12.5387 16.864 12.0747 16.64 11.552C16.4267 11.0187 16.32 10.448 16.32 9.84C16.32 9.02933 16.5067 8.29867 16.88 7.648C17.264 6.98667 17.7867 6.45867 18.448 6.064C19.12 5.66933 19.8773 5.472 20.72 5.472C21.4773 5.46133 22.1547 5.59467 22.752 5.872C23.3493 6.14933 23.824 6.53333 24.176 7.024L22.512 8.384C22.32 8.096 22.0693 7.86667 21.76 7.696C21.4613 7.52533 21.1253 7.44 20.752 7.44C20.2933 7.44 19.8933 7.552 19.552 7.776C19.2107 7.98933 18.944 8.27733 18.752 8.64C18.5707 9.00267 18.48 9.40267 18.48 9.84C18.48 10.2667 18.576 10.6667 18.768 11.04C18.9707 11.4027 19.2427 11.696 19.584 11.92C19.936 12.1333 20.3413 12.24 20.8 12.24C21.216 12.24 21.568 12.1493 21.856 11.968C22.144 11.776 22.3947 11.536 22.608 11.248L24.176 12.608C23.7813 13.1093 23.2907 13.504 22.704 13.792C22.128 14.0693 21.4293 14.208 20.608 14.208ZM28.6114 14.208C27.758 14.208 26.9954 14.0107 26.3234 13.616C25.6514 13.2213 25.1234 12.6987 24.7394 12.048C24.366 11.3867 24.1794 10.656 24.1794 9.856C24.1794 9.056 24.366 8.32533 24.7394 7.664C25.1234 7.00267 25.6514 6.47467 26.3234 6.08C26.9954 5.68533 27.758 5.488 28.6114 5.488C29.4754 5.488 30.238 5.68533 30.8994 6.08C31.5714 6.47467 32.094 7.00267 32.4674 7.664C32.8514 8.32533 33.0434 9.056 33.0434 9.856C33.0434 10.656 32.8514 11.3867 32.4674 12.048C32.094 12.6987 31.5714 13.2213 30.8994 13.616C30.238 14.0107 29.4754 14.208 28.6114 14.208ZM28.6114 12.24C29.07 12.24 29.47 12.1333 29.8114 11.92C30.1527 11.696 30.414 11.4027 30.5954 11.04C30.7874 10.6773 30.8834 10.2827 30.8834 9.856C30.8834 9.41867 30.7874 9.01867 30.5954 8.656C30.414 8.29333 30.1527 8.00533 29.8114 7.792C29.47 7.568 29.07 7.456 28.6114 7.456C28.1527 7.456 27.7527 7.568 27.4114 7.792C27.07 8.00533 26.8034 8.29333 26.6114 8.656C26.43 9.01867 26.3394 9.41867 26.3394 9.856C26.3394 10.2827 26.43 10.6773 26.6114 11.04C26.8034 11.4027 27.07 11.696 27.4114 11.92C27.7527 12.1333 28.1527 12.24 28.6114 12.24ZM33.9994 14V5.68H36.1274V6.896C36.5647 5.95733 37.4127 5.488 38.6714 5.488C39.2687 5.488 39.8074 5.62667 40.2874 5.904C40.7674 6.18133 41.146 6.576 41.4234 7.088C41.7007 7.6 41.8394 8.208 41.8394 8.912V14H39.6794V9.44C39.6794 8.71467 39.514 8.192 39.1834 7.872C38.8527 7.54133 38.4207 7.376 37.8874 7.376C37.4287 7.376 37.0234 7.54133 36.6714 7.872C36.33 8.192 36.1594 8.71467 36.1594 9.44V14H33.9994ZM47.0143 14.208C46.4169 14.208 45.8569 14.096 45.3343 13.872C44.8223 13.648 44.3689 13.3387 43.9743 12.944C43.5796 12.5387 43.2703 12.0747 43.0463 11.552C42.8329 11.0187 42.7263 10.448 42.7263 9.84C42.7263 9.02933 42.9129 8.29867 43.2863 7.648C43.6703 6.98667 44.1929 6.45867 44.8543 6.064C45.5263 5.66933 46.2836 5.472 47.1263 5.472C47.8836 5.46133 48.5609 5.59467 49.1583 5.872C49.7556 6.14933 50.2303 6.53333 50.5823 7.024L48.9183 8.384C48.7263 8.096 48.4756 7.86667 48.1663 7.696C47.8676 7.52533 47.5316 7.44 47.1583 7.44C46.6996 7.44 46.2996 7.552 45.9583 7.776C45.6169 7.98933 45.3503 8.27733 45.1583 8.64C44.9769 9.00267 44.8863 9.40267 44.8863 9.84C44.8863 10.2667 44.9823 10.6667 45.1743 11.04C45.3769 11.4027 45.6489 11.696 45.9903 11.92C46.3423 12.1333 46.7476 12.24 47.2063 12.24C47.6223 12.24 47.9743 12.1493 48.2623 11.968C48.5503 11.776 48.8009 11.536 49.0143 11.248L50.5823 12.608C50.1876 13.1093 49.6969 13.504 49.1103 13.792C48.5343 14.0693 47.8356 14.208 47.0143 14.208ZM52.5089 4.992C52.1462 4.992 51.8369 4.86933 51.5809 4.624C51.3355 4.368 51.2129 4.064 51.2129 3.712C51.2129 3.37067 51.3355 3.07733 51.5809 2.832C51.8369 2.576 52.1462 2.448 52.5089 2.448C52.8822 2.448 53.1915 2.576 53.4369 2.832C53.6822 3.07733 53.8049 3.37067 53.8049 3.712C53.8049 4.07467 53.6822 4.37867 53.4369 4.624C53.1915 4.86933 52.8822 4.992 52.5089 4.992ZM51.4369 14V5.68H53.5969V14H51.4369ZM58.8584 14.208C58.005 14.208 57.253 14.0107 56.6024 13.616C55.9517 13.2213 55.445 12.6987 55.0824 12.048C54.7304 11.3867 54.5544 10.656 54.5544 9.856C54.5544 9.056 54.741 8.32533 55.1144 7.664C55.4877 6.992 55.9944 6.45867 56.6344 6.064C57.285 5.66933 58.0264 5.472 58.8584 5.472C59.6904 5.472 60.421 5.66933 61.0504 6.064C61.6904 6.45867 62.1864 6.992 62.5384 7.664C62.901 8.32533 63.0824 9.056 63.0824 9.856C63.0824 9.97333 63.077 10.096 63.0664 10.224C63.0557 10.352 63.0397 10.4853 63.0184 10.624H56.7944C56.9117 11.1147 57.1464 11.5147 57.4984 11.824C57.861 12.1333 58.3144 12.288 58.8584 12.288C59.3277 12.288 59.733 12.1813 60.0744 11.968C60.4264 11.7547 60.6984 11.488 60.8904 11.168L62.5704 12.432C62.2397 12.9547 61.7437 13.3813 61.0824 13.712C60.421 14.0427 59.6797 14.208 58.8584 14.208ZM58.8264 7.328C58.3144 7.328 57.877 7.48267 57.5144 7.792C57.1517 8.10133 56.9117 8.50667 56.7944 9.008H60.9064C60.789 8.54933 60.5437 8.15467 60.1704 7.824C59.8077 7.49333 59.3597 7.328 58.8264 7.328ZM64.0306 14V5.68H66.1266V7.264C66.2653 6.66667 66.548 6.21333 66.9746 5.904C67.4013 5.584 67.9773 5.44533 68.7026 5.488V7.52H68.3986C67.78 7.52 67.2573 7.71733 66.8306 8.112C66.404 8.50667 66.1906 9.05067 66.1906 9.744V14H64.0306ZM73.063 17.408C72.2203 17.408 71.4683 17.2907 70.807 17.056C70.1563 16.832 69.5803 16.4267 69.079 15.84L70.423 14.256C70.8177 14.704 71.2283 15.008 71.655 15.168C72.0817 15.328 72.5563 15.408 73.079 15.408C73.463 15.408 73.8203 15.312 74.151 15.12C74.4817 14.928 74.743 14.656 74.935 14.304C75.1377 13.9627 75.239 13.5733 75.239 13.136V12.768C75.015 13.152 74.7057 13.4613 74.311 13.696C73.927 13.9307 73.399 14.048 72.727 14.048C71.9697 14.048 71.2817 13.856 70.663 13.472C70.055 13.088 69.575 12.576 69.223 11.936C68.871 11.2853 68.695 10.56 68.695 9.76C68.695 8.96 68.871 8.23467 69.223 7.584C69.575 6.93333 70.055 6.42133 70.663 6.048C71.2817 5.664 71.9697 5.472 72.727 5.472C73.4203 5.472 73.959 5.59467 74.343 5.84C74.7377 6.08533 75.047 6.41067 75.271 6.816V5.68H77.399V13.264C77.399 14.1173 77.2123 14.8533 76.839 15.472C76.4763 16.0907 75.9697 16.5653 75.319 16.896C74.6683 17.2373 73.9163 17.408 73.063 17.408ZM73.079 12.08C73.7937 12.08 74.3483 11.856 74.743 11.408C75.1377 10.96 75.335 10.4107 75.335 9.76C75.335 9.10933 75.1377 8.56 74.743 8.112C74.3483 7.664 73.7937 7.44 73.079 7.44C72.375 7.44 71.8257 7.664 71.431 8.112C71.047 8.56 70.855 9.10933 70.855 9.76C70.855 10.176 70.9403 10.56 71.111 10.912C71.2923 11.264 71.5483 11.5467 71.879 11.76C72.2097 11.9733 72.6097 12.08 73.079 12.08ZM82.6553 14.208C81.8019 14.208 81.0499 14.0107 80.3993 13.616C79.7486 13.2213 79.2419 12.6987 78.8793 12.048C78.5273 11.3867 78.3513 10.656 78.3513 9.856C78.3513 9.056 78.5379 8.32533 78.9113 7.664C79.2846 6.992 79.7913 6.45867 80.4313 6.064C81.0819 5.66933 81.8233 5.472 82.6553 5.472C83.4873 5.472 84.2179 5.66933 84.8473 6.064C85.4873 6.45867 85.9833 6.992 86.3353 7.664C86.6979 8.32533 86.8793 9.056 86.8793 9.856C86.8793 9.97333 86.8739 10.096 86.8633 10.224C86.8526 10.352 86.8366 10.4853 86.8153 10.624H80.5913C80.7086 11.1147 80.9433 11.5147 81.2953 11.824C81.6579 12.1333 82.1113 12.288 82.6553 12.288C83.1246 12.288 83.5299 12.1813 83.8713 11.968C84.2233 11.7547 84.4953 11.488 84.6873 11.168L86.3673 12.432C86.0366 12.9547 85.5406 13.3813 84.8793 13.712C84.2179 14.0427 83.4766 14.208 82.6553 14.208ZM82.6233 7.328C82.1113 7.328 81.6739 7.48267 81.3113 7.792C80.9486 8.10133 80.7086 8.50667 80.5913 9.008H84.7033C84.5859 8.54933 84.3406 8.15467 83.9673 7.824C83.6046 7.49333 83.1566 7.328 82.6233 7.328Z" fill="#FB2C36"/>
</svg>
