<svg width="95" height="32" viewBox="0 0 95 32" fill="none" xmlns="http://www.w3.org/2000/svg">
<path d="M6.94398 27L-1.95503e-05 10.36H5.11998L8.44798 19.864C8.74665 20.7173 8.98131 21.6027 9.15198 22.52C9.32265 21.6027 9.55731 20.7173 9.85598 19.864L13.184 10.36H18.208L11.296 27H6.94398ZM23.581 27.416C20.7863 27.416 18.4823 26.4453 16.669 24.504L19.581 21.848C20.797 23.2133 22.0983 23.896 23.485 23.896C24.2316 23.896 24.797 23.736 25.181 23.416C25.5863 23.0747 25.789 22.6587 25.789 22.168C25.789 21.8693 25.7143 21.6133 25.565 21.4C25.437 21.1867 25.149 20.984 24.701 20.792C24.2743 20.6 23.6236 20.408 22.749 20.216C21.2556 19.8533 20.1463 19.4053 19.421 18.872C18.6956 18.3387 18.2156 17.7413 17.981 17.08C17.7463 16.4187 17.629 15.736 17.629 15.032C17.629 13.5813 18.173 12.376 19.261 11.416C20.3703 10.4347 21.8956 9.944 23.837 9.944C25.181 9.944 26.333 10.1467 27.293 10.552C28.253 10.9573 29.1596 11.7147 30.013 12.824L26.877 15.224C26.4716 14.584 26.013 14.1253 25.501 13.848C25.0103 13.5707 24.4876 13.432 23.933 13.432C23.3356 13.432 22.8343 13.5493 22.429 13.784C22.045 14.0187 21.853 14.392 21.853 14.904C21.853 15.1813 21.981 15.4587 22.237 15.736C22.493 15.992 23.1116 16.248 24.093 16.504C25.7143 16.9093 26.9516 17.3893 27.805 17.944C28.6583 18.4773 29.245 19.0853 29.565 19.768C29.885 20.4507 30.045 21.208 30.045 22.04C30.045 23.064 29.757 23.9813 29.181 24.792C28.6263 25.6027 27.8583 26.2427 26.877 26.712C25.917 27.1813 24.8183 27.416 23.581 27.416ZM37.7515 27C36.1088 27 34.8501 26.5947 33.9755 25.784C33.1008 24.9733 32.6635 23.6613 32.6635 21.848V14.04H30.3275V10.36H32.6635V7L36.9835 6.552V10.36H40.5035V14.04H36.9835V21.624C36.9835 22.648 37.4315 23.16 38.3275 23.16H40.1195V27H37.7515ZM49.094 27.416C47.5793 27.416 46.1926 27.032 44.934 26.264C43.6966 25.4747 42.7046 24.4293 41.958 23.128C41.2326 21.8053 40.87 20.344 40.87 18.744C40.87 17.5493 41.0833 16.4293 41.51 15.384C41.9366 14.3173 42.5233 13.3893 43.27 12.6C44.0166 11.7893 44.8806 11.16 45.862 10.712C46.8646 10.2427 47.942 10.008 49.094 10.008C50.5446 10.008 51.6753 10.2853 52.486 10.84C53.2966 11.3733 53.926 12.088 54.374 12.984V10.36H58.662V27H54.47V24.28C54.022 25.2187 53.382 25.976 52.55 26.552C51.7393 27.128 50.5873 27.416 49.094 27.416ZM49.798 23.512C50.758 23.512 51.5793 23.2987 52.262 22.872C52.966 22.424 53.51 21.8373 53.894 21.112C54.278 20.3867 54.47 19.5973 54.47 18.744C54.47 17.8693 54.278 17.0693 53.894 16.344C53.51 15.6187 52.966 15.032 52.262 14.584C51.5793 14.136 50.758 13.912 49.798 13.912C48.8806 13.912 48.07 14.136 47.366 14.584C46.6833 15.0107 46.15 15.5867 45.766 16.312C45.382 17.0373 45.19 17.8373 45.19 18.712C45.19 19.544 45.382 20.3333 45.766 21.08C46.15 21.8053 46.6833 22.392 47.366 22.84C48.07 23.288 48.8806 23.512 49.798 23.512ZM62.4447 27V14.04H60.1087V10.36H62.4447V9.24C62.4447 7.55467 62.9461 6.2 63.9487 5.176C64.9514 4.152 66.2954 3.64 67.9807 3.64H69.7727V7.32H68.6527C67.3941 7.32 66.7647 7.98133 66.7647 9.304V10.36H70.1567V14.04H66.7647V27H62.4447ZM73.1322 27V14.04H70.7962V10.36H73.1322V9.24C73.1322 7.55467 73.6336 6.2 74.6362 5.176C75.6389 4.152 76.9829 3.64 78.6682 3.64H80.4602V7.32H79.3402C78.0816 7.32 77.4522 7.98133 77.4522 9.304V10.36H80.8442V14.04H77.4522V27H73.1322ZM87.581 27.416C84.7863 27.416 82.4823 26.4453 80.669 24.504L83.581 21.848C84.797 23.2133 86.0983 23.896 87.485 23.896C88.2316 23.896 88.797 23.736 89.181 23.416C89.5863 23.0747 89.789 22.6587 89.789 22.168C89.789 21.8693 89.7143 21.6133 89.565 21.4C89.437 21.1867 89.149 20.984 88.701 20.792C88.2743 20.6 87.6236 20.408 86.749 20.216C85.2556 19.8533 84.1463 19.4053 83.421 18.872C82.6956 18.3387 82.2156 17.7413 81.981 17.08C81.7463 16.4187 81.629 15.736 81.629 15.032C81.629 13.5813 82.173 12.376 83.261 11.416C84.3703 10.4347 85.8956 9.944 87.837 9.944C89.181 9.944 90.333 10.1467 91.293 10.552C92.253 10.9573 93.1596 11.7147 94.013 12.824L90.877 15.224C90.4716 14.584 90.013 14.1253 89.501 13.848C89.0103 13.5707 88.4876 13.432 87.933 13.432C87.3356 13.432 86.8343 13.5493 86.429 13.784C86.045 14.0187 85.853 14.392 85.853 14.904C85.853 15.1813 85.981 15.4587 86.237 15.736C86.493 15.992 87.1116 16.248 88.093 16.504C89.7143 16.9093 90.9516 17.3893 91.805 17.944C92.6583 18.4773 93.245 19.0853 93.565 19.768C93.885 20.4507 94.045 21.208 94.045 22.04C94.045 23.064 93.757 23.9813 93.181 24.792C92.6263 25.6027 91.8583 26.2427 90.877 26.712C89.917 27.1813 88.8183 27.416 87.581 27.416Z" fill="#FB2C36"/>
</svg>
