<svg width="136" height="32" viewBox="0 0 136 32" fill="none" xmlns="http://www.w3.org/2000/svg">
<rect width="32" height="32" fill="black"/>
<path d="M42.048 30.096C40.7467 30.096 39.7227 29.776 38.976 29.136C38.2293 28.496 37.632 27.6213 37.184 26.512C36.7573 25.3813 36.352 24.1013 35.968 22.672L32.864 11.152C32.6293 10.256 32.6827 9.424 33.024 8.656C33.3653 7.86666 34.0373 7.344 35.04 7.088C35.9787 6.832 36.8107 6.896 37.536 7.28C38.2613 7.664 38.752 8.336 39.008 9.296L41.888 19.824C42.144 20.7413 42.4107 21.4133 42.688 21.84C42.9867 22.2667 43.456 22.4053 44.096 22.256C44.6933 22.1067 45.0133 21.776 45.056 21.264C45.0987 20.752 44.992 20.0267 44.736 19.088L42.688 11.312C42.4107 10.2453 42.4427 9.328 42.784 8.56C43.1467 7.77067 43.8507 7.25867 44.896 7.024C45.9627 6.768 46.816 6.90667 47.456 7.44C48.1173 7.952 48.5653 8.67733 48.8 9.616L51.392 19.824C51.6693 20.8693 51.968 21.5733 52.288 21.936C52.6293 22.2987 53.0667 22.4053 53.6 22.256C54.1973 22.0853 54.4853 21.7547 54.464 21.264C54.4427 20.752 54.368 20.016 54.24 19.056C54.048 17.5627 53.8773 16.336 53.728 15.376C53.6 14.416 53.4933 13.616 53.408 12.976C53.344 12.336 53.312 11.7493 53.312 11.216C53.312 10.0213 53.664 9.008 54.368 8.176C55.072 7.32266 56.032 6.896 57.248 6.896C58.4853 6.896 59.424 7.28 60.064 8.048C60.704 8.79467 61.024 9.82933 61.024 11.152C61.024 12.0053 60.896 12.9013 60.64 13.84C60.4053 14.7787 60.1707 15.664 59.936 16.496L58.144 22.672C57.7387 24.08 57.3333 25.3493 56.928 26.48C56.544 27.5893 56.0213 28.4747 55.36 29.136C54.6987 29.776 53.76 30.096 52.544 30.096C51.072 30.096 49.92 29.6373 49.088 28.72C48.256 27.8027 47.616 26.2987 47.168 24.208H46.944C46.5173 26.2987 45.952 27.8027 45.248 28.72C44.544 29.6373 43.4773 30.096 42.048 30.096ZM64.8813 30C63.3026 30 62.0653 29.5733 61.1693 28.72C60.2946 27.8667 59.8573 26.672 59.8573 25.136C59.8573 23.6 60.3693 22.4907 61.3932 21.808C62.4173 21.104 63.7293 20.752 65.3293 20.752C66.2679 20.752 67.1213 20.816 67.8893 20.944C68.6573 21.072 69.3506 21.2533 69.9693 21.488H70.0653V21.008C70.0653 20.5173 69.8839 20.1333 69.5213 19.856C69.1586 19.5573 68.6999 19.4187 68.1453 19.44C67.6119 19.44 67.1533 19.472 66.7693 19.536C66.4066 19.6 65.9479 19.7067 65.3933 19.856C64.3693 20.112 63.4839 20.0907 62.7373 19.792C61.9906 19.4933 61.4786 18.9067 61.2013 18.032C60.9453 17.1147 60.9986 16.3467 61.3613 15.728C61.7453 15.1093 62.3213 14.6293 63.0893 14.288C63.7506 13.968 64.4866 13.7013 65.2973 13.488C66.1293 13.2747 67.0253 13.168 67.9853 13.168C70.7799 13.168 72.8279 13.8507 74.1293 15.216C75.4519 16.56 76.1133 18.8213 76.1133 22V26.96C76.1133 27.8347 75.8466 28.56 75.3133 29.136C74.7799 29.712 74.0439 30 73.1053 30C72.0813 30 71.3133 29.712 70.8013 29.136C70.3106 28.56 70.0653 27.856 70.0653 27.024V26.288H69.4253C69.4253 26.8427 69.3186 27.408 69.1053 27.984C68.9133 28.56 68.4973 29.04 67.8573 29.424C67.2386 29.808 66.2466 30 64.8813 30ZM65.2013 22.992C65.2013 23.3547 65.3293 23.6107 65.5853 23.76C65.8626 23.9093 66.4493 23.984 67.3453 23.984C68.1559 23.984 68.7213 23.9093 69.0413 23.76C69.3613 23.6107 69.5213 23.3547 69.5213 22.992C69.5213 22.6507 69.3613 22.416 69.0413 22.288C68.7213 22.1387 68.1559 22.064 67.3453 22.064C66.4493 22.064 65.8626 22.1387 65.5853 22.288C65.3293 22.416 65.2013 22.6507 65.2013 22.992ZM80.7783 30C79.7329 30 78.9436 29.7227 78.4103 29.168C77.8983 28.6133 77.6423 27.92 77.6423 27.088V8.528C77.6423 7.61067 77.8983 6.85333 78.4103 6.256C78.9436 5.63733 79.7329 5.328 80.7783 5.328C81.7169 5.328 82.4423 5.63733 82.9543 6.256C83.4663 6.85333 83.7223 7.58933 83.7223 8.464V27.088C83.7223 27.92 83.4663 28.6133 82.9543 29.168C82.4423 29.7227 81.7169 30 80.7783 30ZM88.4048 30C87.4661 30 86.7194 29.7227 86.1648 29.168C85.6101 28.592 85.3328 27.888 85.3328 27.056V8.528C85.3328 7.632 85.5994 6.87466 86.1328 6.256C86.6874 5.63733 87.4661 5.328 88.4688 5.328C89.4501 5.328 90.1861 5.63733 90.6768 6.256C91.1888 6.87466 91.4448 7.64267 91.4448 8.56V18.256L91.5408 18.288C91.6474 17.392 91.9248 16.5707 92.3728 15.824C92.8208 15.056 93.4501 14.4373 94.2608 13.968C95.0714 13.4987 96.0634 13.264 97.2368 13.264C98.8154 13.264 100.085 13.7013 101.045 14.576C102.005 15.4507 102.485 16.6453 102.485 18.16C102.485 19.2053 102.271 20.0373 101.845 20.656C101.439 21.2533 100.885 21.6693 100.181 21.904C99.4768 22.1387 98.6981 22.2453 97.8448 22.224V22.768C99.7434 22.768 101.087 23.152 101.877 23.92C102.687 24.6667 103.093 25.616 103.093 26.768C103.093 27.8347 102.773 28.656 102.133 29.232C101.493 29.808 100.725 30.0853 99.8288 30.064C98.8474 30.0427 98.0368 29.7547 97.3968 29.2C96.7568 28.6453 96.2234 27.8987 95.7968 26.96L94.4208 24.048C94.1434 23.472 93.7808 23.056 93.3328 22.8C92.9061 22.544 92.2768 22.448 91.4448 22.512V27.056C91.4448 27.888 91.1674 28.592 90.6128 29.168C90.0794 29.7227 89.3434 30 88.4048 30ZM92.1168 20.336C92.1168 20.6347 92.2661 20.8587 92.5648 21.008C92.8848 21.136 93.5354 21.2 94.5168 21.2C95.4768 21.2 96.1168 21.136 96.4368 21.008C96.7568 20.88 96.9168 20.656 96.9168 20.336C96.9168 20.0373 96.7568 19.8133 96.4368 19.664C96.1168 19.5147 95.4874 19.44 94.5488 19.44C93.5461 19.44 92.8848 19.5147 92.5648 19.664C92.2661 19.8133 92.1168 20.0373 92.1168 20.336ZM103.642 21.68C103.642 19.9947 103.973 18.512 104.634 17.232C105.317 15.952 106.277 14.9493 107.514 14.224C108.773 13.4987 110.266 13.136 111.994 13.136C113.338 13.136 114.544 13.3813 115.61 13.872C116.698 14.3627 117.552 15.024 118.17 15.856C118.789 16.6667 119.098 17.5627 119.098 18.544C119.098 19.568 118.8 20.2933 118.202 20.72C117.605 21.1467 116.72 21.36 115.546 21.36H108.826C108.826 21.9147 109.04 22.3733 109.466 22.736C109.914 23.0987 110.661 23.28 111.706 23.28C112.24 23.28 112.73 23.2267 113.178 23.12C113.648 23.0133 114.117 22.9173 114.586 22.832C115.077 22.7253 115.621 22.672 116.218 22.672C117.072 22.672 117.776 22.9813 118.33 23.6C118.885 24.1973 119.162 25.0293 119.162 26.096C119.162 27.3547 118.512 28.336 117.21 29.04C115.93 29.744 114.245 30.096 112.154 30.096C110.682 30.096 109.296 29.808 107.994 29.232C106.714 28.656 105.669 27.7493 104.858 26.512C104.048 25.2533 103.642 23.6427 103.642 21.68ZM114.01 20.304C114.33 20.304 114.437 20.1547 114.33 19.856C114.245 19.5573 113.989 19.248 113.562 18.928C113.136 18.608 112.517 18.448 111.706 18.448C110.768 18.448 110.064 18.6507 109.594 19.056C109.146 19.4613 108.922 19.8773 108.922 20.304H114.01ZM124.063 30C123.061 30 122.282 29.712 121.727 29.136C121.173 28.56 120.895 27.8347 120.895 26.96V16.464C120.895 15.5467 121.173 14.7893 121.727 14.192C122.282 13.5733 123.061 13.264 124.063 13.264C125.066 13.264 125.834 13.5733 126.367 14.192C126.901 14.7893 127.167 15.5253 127.167 16.4V17.072H127.775C127.861 15.9413 128.287 15.0133 129.055 14.288C129.823 13.5627 130.73 13.2 131.775 13.2C132.821 13.2 133.642 13.52 134.239 14.16C134.858 14.8 135.167 15.6533 135.167 16.72C135.167 17.7227 134.879 18.5547 134.303 19.216C133.727 19.8773 132.991 20.208 132.095 20.208C131.349 20.208 130.719 20.0373 130.207 19.696C129.717 19.3333 129.354 18.9173 129.119 18.448C128.437 18.3627 127.935 18.4373 127.615 18.672C127.317 18.8853 127.167 19.3227 127.167 19.984V26.96C127.167 27.8347 126.901 28.56 126.367 29.136C125.834 29.712 125.066 30 124.063 30Z" fill="black"/>
</svg>
